<svg height="448pt" viewBox="0 -60 448 448" width="448pt" xmlns="http://www.w3.org/2000/svg"><path d="m224 136c-53.019531 0-96 42.980469-96 96s42.980469 96 96 96 96-42.980469 96-96c-.058594-52.996094-43.003906-95.941406-96-96zm72 104h-64v64c0 4.417969-3.582031 8-8 8s-8-3.582031-8-8v-64h-64c-4.417969 0-8-3.582031-8-8s3.582031-8 8-8h64v-64c0-4.417969 3.582031-8 8-8s8 3.582031 8 8v64h64c4.417969 0 8 3.582031 8 8s-3.582031 8-8 8zm0 0"/><path d="m323.535156 180.878906c.863282 1.679688 1.679688 3.386719 2.464844 5.113282.6875 1.511718 1.34375 3.03125 1.960938 4.574218.710937 1.777344 1.359374 3.578125 1.984374 5.402344.535157 1.597656 1.054688 3.144531 1.527344 4.75.535156 1.855469 1.007813 3.746094 1.457032 5.648438.382812 1.601562.757812 3.257812 1.070312 4.914062.367188 1.949219.640625 3.917969.902344 5.894531.226562 1.671875.457031 3.335938.601562 5.03125.054688.601563.167969 1.183594.214844 1.792969h112.28125v-224h-448v224h112.28125c.046875-.609375.160156-1.191406.214844-1.792969.144531-1.695312.375-3.359375.601562-5.03125.261719-1.976562.535156-3.945312.902344-5.894531.3125-1.65625.6875-3.28125 1.070312-4.914062.449219-1.902344.921876-3.792969 1.457032-5.648438.472656-1.597656.992187-3.199219 1.527344-4.75.625-1.824219 1.273437-3.625 1.984374-5.402344.617188-1.542968 1.273438-3.0625 1.960938-4.574218.800781-1.726563 1.601562-3.433594 2.464844-5.113282.757812-1.472656 1.550781-2.917968 2.398437-4.359375.933594-1.597656 1.910157-3.199219 2.929688-4.800781.894531-1.398438 1.800781-2.765625 2.757812-4.117188 1.074219-1.53125 2.203125-3.007812 3.351563-4.480468 1.019531-1.304688 2.050781-2.59375 3.121094-3.847656 1.207031-1.410157 2.472656-2.777344 3.753906-4.128907 1.132812-1.191406 2.261718-2.402343 3.453125-3.535156 1.34375-1.296875 2.738281-2.539063 4.144531-3.769531 1.234375-1.078125 2.457031-2.167969 3.746094-3.199219 1.464844-1.175781 2.992187-2.28125 4.519531-3.382813 1.328125-.953124 2.632813-1.921874 4-2.824218 1.597656-1.050782 3.246094-2.007813 4.902344-2.976563 1.394531-.800781 2.769531-1.664062 4.199219-2.402343 1.722656-.910157 3.496093-1.71875 5.273437-2.542969 1.449219-.671875 2.863281-1.382813 4.34375-1.992188 1.871094-.800781 3.792969-1.421875 5.703125-2.09375 1.464844-.515625 2.898438-1.082031 4.394531-1.53125 2.039063-.621093 4.144531-1.101562 6.230469-1.597656 1.433594-.351563 2.832031-.800781 4.28125-1.058594 2.351562-.46875 4.757812-.796875 7.160156-1.09375 1.246094-.167969 2.464844-.417969 3.71875-.542969 1.054688-.105468 2.128906-.105468 3.199219-.1875v-96.414062c0-4.417969 3.582031-8 8-8s8 3.582031 8 8v96.382812c1.066406.082032 2.136719.082032 3.199219.183594 1.257812.128906 2.472656.378906 3.722656.546875 2.398438.320313 4.800781.621094 7.199219 1.09375 1.449219.289063 2.847656.703125 4.28125 1.058594 2.085937.503906 4.191406.980469 6.230469 1.597656 1.496093.449219 2.929687 1.015625 4.390624 1.527344 1.914063.671875 3.832032 1.320313 5.707032 2.097656 1.480468.609375 2.894531 1.320313 4.34375 1.992188 1.773437.800781 3.550781 1.597656 5.269531 2.542969 1.433594.761718 2.808594 1.601562 4.203125 2.402343 1.652344.964844 3.300781 1.925781 4.902344 2.972657 1.359375.90625 2.664062 1.875 4 2.824218 1.527344 1.105469 3.054687 2.210938 4.519531 3.386719 1.289063 1.03125 2.511719 2.117187 3.746094 3.199219 1.40625 1.230468 2.796875 2.472656 4.140625 3.765625 1.195312 1.144531 2.320312 2.347656 3.457031 3.539062 1.28125 1.351563 2.542969 2.71875 3.753906 4.125 1.070313 1.257813 2.101563 2.546875 3.117188 3.851563 1.152343 1.46875 2.28125 2.949218 3.355469 4.476562.957031 1.355469 1.863281 2.722656 2.757812 4.121094 1.011719 1.601562 1.988281 3.199219 2.929688 4.800781.710937 1.472657 1.503906 2.917969 2.261718 4.390625zm20.464844-156.878906c0-4.417969 3.582031-8 8-8s8 3.582031 8 8v176c0 4.417969-3.582031 8-8 8s-8-3.582031-8-8zm-240 176c0 4.417969-3.582031 8-8 8s-8-3.582031-8-8v-176c0-4.417969 3.582031-8 8-8s8 3.582031 8 8zm0 0"/></svg>